<svg xmlns="http://www.w3.org/2000/svg" width="429.793" height="444.983" viewBox="0 0 113.716 117.735" xmlns:v="https://vecta.io/nano"><style><![CDATA[.B{stroke-width:.25}.C{stroke-linejoin:bevel}]]></style><path d="M46.028 54.679l3.627 11.436 14.815 4.188zm40.201.582L79.03 68.116l-6.397 1.438" fill="#ffdac0" stroke="#ffdac0" class="B C"/><g fill="#ff8533" stroke="#ff8533" class="B C"><path d="M28.393 5.662l39.276 8.519-11.111 2.099z"/><path d="M67.669 14.181l38.802-8.641-27.018 10.538z"/></g><path d="M56.558 16.28L31.46 22.381 28.393 5.662m51.061 10.416l24.088 7.904 2.93-18.441" fill="#ffcfad" stroke="#ffcfad" class="B C"/><path d="M56.558 16.28L28.27 44.859l3.19-22.477m47.994-6.304l27.141 28.869-3.053-20.965" fill="#cc5200" stroke="#cc5200" class="B C"/><path d="M28.27 44.859l17.758 9.821L64.47 70.303l4.917-3.462-1.717-52.66-11.111 2.099z" fill="#ff6e00" stroke="#ff6e00" class="B C"/><path d="M67.669 14.181l.084 52.258 4.88 3.115 13.597-14.293 20.365-10.314-27.141-28.869" fill="#fa6c00" stroke="#fa6c00" class="B C"/><path d="M49.654 66.115L54.55 80.47l9.824 17.356 4.195-23.224-4.1-4.299z" fill="#db5800" stroke="#db5800" class="B C"/><path d="M51.435 90.071l18.635 11.112-1.377 8.968-30.871 2.041 13.614-22.121" fill="#ffdac0" stroke="#ffdac0" class="B C"/><path d="M54.55 80.47l-8.641 6.245 5.526 3.356 12.94 7.755z" fill="#cc5200" stroke="#cc5200" class="B C"/><path d="M37.821 112.192l13.614-22.121-5.526-3.356L7.123 61.556 7.22 86.39l19.843 21.568z" fill="#ff6e00" stroke="#ff6e00" class="B C"/><path d="M28.27 44.859l9.699 19.294L54.55 80.47l-8.522-25.791z" fill="#ff791f" stroke="#ff791f" class="B C"/><path d="M28.27 44.859L7.123 61.556l38.786 25.159 8.641-6.245z" fill="#ff7f29" stroke="#ff7f29" class="B C"/><path d="M64.375 97.826l14.655-29.71-6.397 1.438-4.063 5.047z" fill="#f06000" stroke="#f06000" class="B C"/><ellipse cx="60.018" cy="62.431" rx="4.729" ry="3.855" transform="rotate(339.891)" fill="#ffb380" stroke="#ff7f2a" class="B C"/><circle cx="77.887" cy="38.351" r="1.285" fill="#520"/><ellipse cx="69.422" cy="9.387" rx="4.729" ry="3.855" transform="rotate(25.241)" fill="#ffb380" stroke="#ff7f2a" class="B C"/><g fill="#520"><circle cx="58.854" cy="38.454" r="1.285"/><ellipse cx="68.702" cy="70.89" rx="4.208" ry="3.99"/></g></svg>